HIERARCHY
ROOT Hips
{
	OFFSET -3.958830 18.904000 13.208200
	CHANNELS 6 Xposition Yposition Zposition Zrotation Yrotation Xrotation 
	JOINT LHipJoint
	{
		OFFSET 0.000000 0.000000 0.000000
		CHANNELS 3 Zrotation Yrotation Xrotation
		JOINT LeftUpLeg
		{
			OFFSET 1.800000 -1.400000 0.085000
			CHANNELS 3 Zrotation Yrotation Xrotation
			JOINT LeftLeg
			{
				OFFSET 2.215000 -6.000000 0.000000
				CHANNELS 3 Zrotation Yrotation Xrotation
				JOINT LeftFoot
				{
					OFFSET 2.500000 -6.900000 0.000000
					CHANNELS 3 Zrotation Yrotation Xrotation
					JOINT LeftToeBase
					{
						OFFSET 0.200000 -0.500000 1.950000
						CHANNELS 3 Zrotation Yrotation Xrotation
						End Site
						{
							OFFSET 0.000000 0.000000 0.000000
						}
					}
				}
			}
		}
	}
	JOINT RHipJoint
	{
		OFFSET 0.000000 0.000000 0.000000
		CHANNELS 3 Zrotation Yrotation Xrotation
		JOINT RightUpLeg
		{
			OFFSET -1.800000 -1.400000 0.085000
			CHANNELS 3 Zrotation Yrotation Xrotation
			JOINT RightLeg
			{
				OFFSET -2.215000 -6.000000 0.000000
				CHANNELS 3 Zrotation Yrotation Xrotation
				JOINT RightFoot
				{
					OFFSET -2.500000 -6.900000 0.000000
					CHANNELS 3 Zrotation Yrotation Xrotation
					JOINT RightToeBase
					{
						OFFSET -0.200000 -0.500000 1.950000
						CHANNELS 3 Zrotation Yrotation Xrotation
						End Site
						{
							OFFSET 0.000000 0.000000 0.000000
						}
					}
				}
			}
		}
	}
	JOINT LowerBack
	{
		OFFSET 0.000000 0.000000 0.000000
		CHANNELS 3 Zrotation Yrotation Xrotation
		JOINT Spine
		{
			OFFSET -0.087000 1.940000 -0.288900
			CHANNELS 3 Zrotation Yrotation Xrotation
			JOINT Spine1
			{
				OFFSET 0.000000 1.950000 0.060000
				CHANNELS 3 Zrotation Yrotation Xrotation
				JOINT Neck
				{
					OFFSET 0.000000 0.000000 0.000000
					CHANNELS 3 Zrotation Yrotation Xrotation
					JOINT Neck1
					{
						OFFSET 0.000000 1.600000 0.340000
						CHANNELS 3 Zrotation Yrotation Xrotation
						JOINT Head
						{
							OFFSET 0.000000 1.667000 -0.240000
							CHANNELS 3 Zrotation Yrotation Xrotation
							End Site
							{
								OFFSET 0.000000 0.000000 0.000000
							}
						}
					}
				}
				JOINT LeftShoulder
				{
					OFFSET 0.000000 0.000000 0.000000
					CHANNELS 3 Zrotation Yrotation Xrotation
					JOINT LeftArm
					{
						OFFSET 2.700000 1.550000 -0.730000
						CHANNELS 3 Zrotation Yrotation Xrotation
						JOINT LeftForeArm
						{
							OFFSET 5.450000 0.000000 0.000000
							CHANNELS 3 Zrotation Yrotation Xrotation
							JOINT LeftHand
							{
								OFFSET 3.450000 0.000000 0.000000
								CHANNELS 3 Zrotation Yrotation Xrotation
								JOINT LeftHandIndex1
								{
									OFFSET 0.750000 0.000000 0.000000
									CHANNELS 3 Zrotation Yrotation Xrotation
									End Site
									{
										OFFSET 0.000000 0.000000 0.000000
									}
								}
							}
						}
					}
				}
				JOINT RightShoulder
				{
					OFFSET 0.000000 0.000000 0.000000
					CHANNELS 3 Zrotation Yrotation Xrotation
					JOINT RightArm
					{
						OFFSET -2.700000 1.550000 -0.730000
						CHANNELS 3 Zrotation Yrotation Xrotation
						JOINT RightForeArm
						{
							OFFSET -5.450000 0.000000 0.000000
							CHANNELS 3 Zrotation Yrotation Xrotation
							JOINT RightHand
							{
								OFFSET -3.450000 0.000000 0.000000
								CHANNELS 3 Zrotation Yrotation Xrotation
								JOINT RightHandIndex1
								{
									OFFSET -0.750000 0.000000 0.000000
									CHANNELS 3 Zrotation Yrotation Xrotation
									End Site
									{
										OFFSET 0.000000 0.000000 0.000000
									}
								}
							}
						}
					}
				}
			}
		}
	}
}
MOTION
Frames: 13
Frame Time: 0.016667
0.214090 16.209810 -5.894450 -6.280926 8.400270 -2.719479 -15.890692 13.024097 4.657478 9.739987 -0.692881 -49.813050 16.559436 5.254418 50.803437 -0.189026 8.566617 1.119632 0.243820 -0.089520 0.507470 17.795770 -9.220933 2.855613 -4.932750 11.036202 -18.827024 5.508971 -9.387560 52.000417 -1.159292 -7.505979 1.628578 -0.047990 -0.258290 0.061530 -2.019934 -3.779934 -9.025086 0.227951 7.446744 36.666507 3.736014 11.190763 -3.745350 4.229688 -1.381662 -9.610325 -4.915538 7.320747 52.632004 -10.131890 5.967860 -26.809830 -37.655421 -9.482084 0.590893 -48.011457 0.886460 -5.531610 -11.590372 -7.448430 -1.367322 -3.509809 2.487008 0.988940 -0.307690 0.266860 -0.234620 29.741260 17.978860 7.354606 43.449121 10.138493 -14.490462 -149.017260 55.594440 -146.983514 2.155355 -1.311039 -0.305830 0.248530 0.211630 -0.454710 
0.232470 16.224590 -5.871720 -6.411328 7.002111 -4.766569 -15.877212 13.231277 4.568202 10.992666 -0.384610 -47.964466 16.128368 5.405863 52.209078 -0.175706 8.787085 1.009872 0.286430 -0.047060 0.547280 17.772530 -9.331173 2.737058 -5.111429 10.523594 -16.646643 5.370161 -9.600876 52.064581 -1.231919 -7.537537 1.608142 -0.040120 -0.320690 0.075990 -2.008559 -3.962333 -8.960832 0.403411 7.236684 39.000856 3.634471 11.464271 -4.521583 4.130858 -0.854511 -8.995055 -4.737627 6.183012 56.923786 -8.717380 4.687530 -29.757070 -37.760625 -7.711348 -0.358677 -48.016175 0.550085 -5.743226 -12.654655 -8.019748 -1.363015 -3.466275 2.454096 1.069540 -0.370250 0.337340 -0.249470 29.943138 15.611267 6.919998 44.901831 7.123088 -16.851288 -156.485911 64.702659 -163.545270 2.077524 -1.343998 -0.288120 0.253360 0.204640 -0.471270 
0.258380 16.242610 -5.848110 -6.799083 5.664837 -6.496299 -15.831077 13.323724 4.499876 12.661118 -0.006055 -46.219146 15.075951 5.891375 53.322146 -0.173035 8.980116 0.915137 0.340920 0.018370 0.592570 17.790346 -9.470123 2.646475 -5.152569 10.019583 -14.727545 5.292542 -9.802974 51.874207 -1.296552 -7.545677 1.603502 -0.015660 -0.368750 0.087490 -2.097702 -3.895085 -8.908088 1.427151 6.574499 40.841963 2.685577 11.443359 -4.818650 4.276615 -0.341793 -8.361960 -4.143444 4.955106 60.628620 -7.648830 3.765720 -32.152770 -37.455692 -6.127705 -1.140892 -47.919782 0.122419 -6.009809 -13.782087 -8.968596 -1.307953 -3.435146 2.425026 1.129950 -0.412620 0.399380 -0.253250 29.119938 13.468683 6.199773 46.401607 5.068010 -19.821002 -174.679090 74.094921 171.447873 1.936989 -1.193891 -0.270200 0.266600 0.185980 -0.483780 
0.287110 16.269850 -5.823620 -7.142667 4.501717 -8.041243 -15.784162 13.397837 4.444718 14.563401 0.385984 -44.301581 13.282735 6.768227 53.969131 -0.163586 9.115396 0.841168 0.410090 0.112420 0.630550 17.808655 -9.625828 2.544641 -5.215572 9.366982 -12.772612 5.063075 -9.810159 51.244092 -1.340612 -7.466521 1.627774 0.023590 -0.408890 0.094330 -2.186893 -3.797483 -8.842999 2.370762 5.814263 42.436921 1.812304 11.265934 -5.433672 4.446934 -0.372125 -7.622878 -4.607569 4.346213 64.424369 -5.724050 2.811530 -33.756950 -37.300415 -4.449700 -1.741323 -47.815087 0.168362 -6.452828 -14.794240 -10.413717 -1.189753 -3.392093 2.421346 1.166760 -0.452930 0.458940 -0.241790 28.494721 11.635332 4.985299 46.382006 3.060324 -24.492101 128.263033 77.111939 106.340066 2.161882 0.744415 -0.238940 0.280730 0.152850 -0.478310 
0.317330 16.310270 -5.797770 -7.427772 3.396830 -9.266021 -15.728930 13.483812 4.397505 16.526612 0.794895 -42.162023 10.886231 7.911522 53.780212 -0.129350 9.099496 0.807791 0.541420 0.288460 0.704540 17.829230 -9.793596 2.440433 -5.309594 8.584165 -10.922197 4.640343 -9.548360 50.094126 -1.374451 -7.267179 1.693342 0.089020 -0.489420 0.098530 -2.291692 -3.708505 -8.761001 3.205870 5.016760 43.250597 1.060884 10.803395 -4.577693 4.457608 -0.427767 -7.876719 -5.285594 4.143903 68.516346 -3.378580 2.138290 -34.848870 -37.089905 -3.600732 -2.414576 -47.925163 0.008056 -7.098447 -15.352382 -11.929215 -1.060168 -3.309520 2.450565 1.176730 -0.512480 0.541190 -0.210190 28.124237 10.239849 5.510668 45.846563 3.688808 -12.853786 75.704546 86.679922 51.000925 3.385576 0.523712 -0.159020 0.262930 0.063210 -0.458570 
0.344490 16.347330 -5.767430 -7.636776 2.489036 -9.995761 -15.684906 13.519177 4.379896 18.195660 1.019842 -40.347907 8.669468 8.902271 53.263922 -0.091534 9.063421 0.798658 0.663560 0.450710 0.769110 17.848477 -9.961331 2.327514 -5.261868 7.626585 -9.274069 3.896276 -9.056886 48.534627 -1.386466 -6.981170 1.791511 0.149820 -0.546850 0.101660 -2.374563 -3.563212 -8.673945 4.002373 4.462265 43.440090 0.699641 10.590748 -4.341967 4.337269 -0.725446 -7.813006 -6.147139 4.064705 72.268993 -1.223590 1.555360 -35.423160 -36.542414 -2.595823 -2.772361 -48.738413 -0.096590 -7.557597 -15.641226 -12.931971 -0.974891 -3.244131 2.483195 1.178070 -0.561100 0.613450 -0.165000 27.688773 9.593522 5.156841 45.192268 2.166546 -16.574098 56.529301 76.666352 31.955975 2.335223 -1.183670 -0.087750 0.257910 -0.024750 -0.431660 
0.372670 16.385860 -5.741950 -7.717731 2.095022 -10.244871 -15.644441 13.523720 4.392886 19.450819 0.944868 -38.841592 6.433893 9.750523 52.303487 -0.090066 9.000873 0.812252 0.741330 0.557130 0.798960 17.866704 -10.112012 2.226093 -5.371694 6.663678 -8.138928 3.157181 -8.603715 46.875381 -1.367432 -6.691173 1.896655 0.197080 -0.563080 0.091680 -2.453851 -3.429614 -8.599563 4.748084 3.880748 43.148428 0.392714 10.201483 -3.955337 4.246244 -1.118980 -7.704521 -7.356961 4.193232 74.802882 0.780110 0.864040 -35.391780 -35.609953 -1.684182 -3.110087 -49.782199 -0.528155 -7.798421 -15.869441 -13.625321 -0.919112 -3.217034 2.486529 1.178260 -0.586800 0.649410 -0.126170 26.873245 8.848896 4.788320 44.899135 1.320584 -17.440842 48.098993 69.065459 23.205348 2.199450 -1.272022 -0.054220 0.278450 -0.076970 -0.409510 
0.401490 16.428140 -5.720200 -7.817353 2.177089 -10.088827 -15.609291 13.502805 4.439750 20.392176 0.644655 -37.758871 4.285694 10.386406 50.957570 -0.110884 8.894171 0.847663 0.791190 0.626150 0.809610 17.883792 -10.232901 2.138870 -5.468676 5.689448 -7.356654 2.566450 -8.222899 44.969835 -1.323227 -6.387444 2.006067 0.234480 -0.561690 0.079180 -2.529389 -3.328369 -8.547138 5.523101 3.174421 42.490815 0.154797 9.605062 -3.582367 4.163234 -1.548345 -7.605784 -8.685961 4.588382 76.166848 2.245920 0.350530 -34.741280 -34.647572 -0.935024 -3.398387 -50.885592 -1.023903 -7.856001 -15.936878 -13.727514 -0.922219 -3.209059 2.486322 1.172060 -0.596320 0.662350 -0.093050 26.046015 8.113466 4.474030 44.522251 0.690586 -17.345894 43.517983 62.403983 18.104855 2.167051 -1.253886 -0.039990 0.297060 -0.112320 -0.391680 
0.434000 16.468460 -5.695700 -7.733967 2.609686 -9.541665 -15.572866 13.483884 4.482839 20.770557 0.181939 -37.001144 2.455893 10.730155 49.329637 -0.125700 8.708663 0.916712 0.808780 0.664720 0.790270 17.898383 -10.353434 2.069012 -5.647594 4.791401 -6.984580 1.964746 -7.838518 43.079343 -1.256891 -6.087026 2.111429 0.254940 -0.544770 0.065230 -2.606666 -3.232633 -8.500711 6.226377 2.480352 41.291087 0.023050 8.858720 -3.194949 4.005550 -2.065973 -7.595140 -10.262056 5.191164 76.471299 3.561780 -0.224820 -33.255430 -33.490281 -0.290454 -3.520826 -52.247190 -1.324295 -7.936378 -15.935825 -13.658707 -0.936189 -3.213555 2.500665 1.140810 -0.593770 0.654970 -0.065730 25.208677 7.476048 4.270609 44.165113 0.132477 -16.835430 41.115827 56.711231 14.972463 2.174657 -1.232622 -0.026280 0.305190 -0.131760 -0.363800 
0.468260 16.511110 -5.671360 -7.403507 3.205399 -8.588728 -15.540573 13.466223 4.531682 20.678457 -0.362933 -36.518448 0.686371 10.949337 47.424820 -0.142139 8.484584 1.023457 0.792800 0.657900 0.745590 17.903910 -10.480680 2.006569 -5.949181 3.984308 -6.961031 1.272191 -7.386917 41.024667 -1.166268 -5.759831 2.248147 0.248310 -0.493630 0.051120 -2.667630 -3.127261 -8.463618 6.690288 2.047652 39.661963 -0.072585 8.240701 -3.107498 3.894671 -2.412689 -7.667732 -11.275942 5.427339 76.156746 4.358620 -0.842940 -31.043710 -32.487486 0.269996 -3.531538 -53.385832 -1.242391 -8.066234 -16.036196 -13.682524 -0.923824 -3.233809 2.501192 1.104140 -0.567580 0.624250 -0.032040 24.480384 6.875492 4.246370 44.132968 -0.752926 -16.398584 39.268156 52.144824 12.679627 2.176692 -1.207118 -0.028740 0.324280 -0.135390 -0.333950 
0.505000 16.553910 -5.643820 -6.930262 3.820996 -7.291258 -15.509120 13.435239 4.584078 20.327719 -0.930272 -36.203259 -1.031248 11.109720 45.418121 -0.158061 8.256370 1.136850 0.755410 0.615420 0.696750 17.909125 -10.609615 1.953405 -6.240192 3.270146 -7.235524 0.442817 -6.842334 38.843436 -1.050085 -5.406135 2.395051 0.228850 -0.434970 0.037820 -2.726537 -2.993940 -8.436667 7.032267 1.818130 37.519734 -0.088444 7.694492 -2.931597 3.750859 -2.608339 -7.749080 -11.875155 5.339777 75.047458 4.846940 -1.498480 -28.223670 -31.356610 0.723135 -3.443649 -54.636597 -1.132221 -8.132546 -16.101839 -13.443013 -0.927602 -3.270405 2.502025 1.058230 -0.529120 0.575640 -0.008730 23.704393 6.263969 4.283595 44.402197 -1.719858 -16.002198 37.688622 48.126536 10.799942 2.183769 -1.187230 -0.041410 0.333740 -0.128970 -0.311240 
0.541510 16.594060 -5.617060 -6.446685 4.328380 -5.678266 -15.480078 13.392009 4.627879 19.819868 -1.433216 -36.032660 -2.589687 11.137806 43.157341 -0.183345 7.976324 1.270477 0.701400 0.552770 0.647140 17.915998 -10.728714 1.921221 -6.348892 2.680794 -7.772019 -0.481830 -6.228114 36.591416 -0.920922 -5.038851 2.544395 0.202270 -0.376120 0.021540 -2.781075 -2.837819 -8.421546 7.275625 1.752558 34.975531 -0.009401 7.198880 -2.593890 3.633419 -2.580321 -7.712094 -11.738095 4.771885 72.822014 4.643650 -1.905850 -25.359320 -30.091062 1.150083 -3.325628 -55.982396 -1.138595 -8.096579 -16.082267 -12.882633 -0.946964 -3.319942 2.503622 1.003890 -0.482870 0.514630 0.002790 22.741811 5.510558 4.225326 45.009932 -2.343189 -15.516149 35.795780 44.241518 9.003631 2.197992 -1.166364 -0.062030 0.335800 -0.115110 -0.295840 
0.575850 16.637610 -5.594280 -5.815101 4.689178 -3.888074 -15.440472 13.350323 4.636270 18.990391 -1.900941 -35.810173 -3.943145 10.992683 40.622887 -0.234251 7.638584 1.435367 0.616750 0.455650 0.567450 17.929647 -10.862501 1.908317 -6.544068 2.249875 -8.603818 -1.394787 -5.616366 34.305729 -0.776398 -4.679831 2.702961 0.166210 -0.285030 -0.000870 -2.856753 -2.634733 -8.394749 7.370460 1.842088 32.278943 0.005847 6.755269 -2.225630 3.390071 -2.550734 -7.641757 -11.556552 4.282047 69.975045 4.600110 -2.280900 -22.336650 -28.797724 1.441805 -3.126425 -57.142433 -1.082077 -8.040058 -16.333100 -12.301508 -0.954267 -3.389156 2.487167 0.952670 -0.418790 0.431580 0.012920 21.972683 4.843748 4.157244 45.898850 -2.883457 -15.132653 33.753569 40.754548 7.405516 2.198128 -1.129494 -0.108060 0.357420 -0.076640 -0.281080 
